<svg xmlns="http://www.w3.org/2000/svg" viewBox="0 0 532.11 526.93"><defs><style>.cls-1{fill:#c4c496;}</style></defs><g id="Layer_2" data-name="Layer 2"><g id="Layer_1-2" data-name="Layer 1"><polygon class="cls-1" points="0 284.35 0 28.4 52.08 28.4 58.73 82.49 58.73 284.35 0 284.35"/><path class="cls-1" d="M157,284.35V83.94q0-21.73-23.27-21.73-28.25,0-28.25,34.77L88.32,60.28h18.84q3.33-36.7,50.42-36.71,23,0,36.15,13.77t13.16,41.77V284.35Z" transform="translate(-46.77)"/><path class="cls-1" d="M258.41,284.35V88.77q0-26.56-22.72-26.56-28.8,0-28.8,34.77l-19.95-36.7h22.72q1.38-15,13.71-25.84T259,23.57q30.48,0,44.33,14.25t13.85,46.12V284.35Z" transform="translate(-46.77)"/><path class="cls-1" d="M421.72,298.52q-74.52,0-115.84-39.08T264.56,149.26q0-71.37,41.32-110.32T421.72,0q74.85,0,116,38.94t41.15,110.32q0,71.1-41.15,110.18T421.72,298.52Zm0-51.56q39.63,0,61.14-25.51t21.5-72.19q0-46.95-21.5-72.32T421.72,51.56q-39.63,0-61.14,25.38t-21.51,72.32q0,46.68,21.51,72.19T421.72,247Z" transform="translate(-46.77)"/><path class="cls-1" d="M46.77,313.22V280.35H287.31v32.87Zm0,212.79V493.14H287.31V526Zm91,0V280.35h57.91V526Z" transform="translate(-46.77)"/><path class="cls-1" d="M270.08,313.79v-46H550.4v46Zm48,197-48-29.82L502.37,285l48,28.84Zm-48,16.13V481H557v45.95Z" transform="translate(-46.77)"/></g></g></svg>