<svg xmlns="http://www.w3.org/2000/svg" viewBox="0 0 84.63 6.47"><defs><style>.cls-1{fill:#c4c4c4;}</style></defs><g id="Layer_2" data-name="Layer 2"><g id="Layer_1-2" data-name="Layer 1"><path class="cls-1" d="M49.72,6.43V6.2a2,2,0,0,0,.43-.1A.53.53,0,0,0,50.37,6a.45.45,0,0,0,.07-.27,1.4,1.4,0,0,0,0-.34,3.25,3.25,0,0,0-.13-.42L50,4.32H47.32l-.2.46a3.89,3.89,0,0,0-.2.52,1.39,1.39,0,0,0-.05.32.47.47,0,0,0,.18.41,1.05,1.05,0,0,0,.55.17v.23H45.1V6.2a.85.85,0,0,0,.57-.3,2.87,2.87,0,0,0,.47-.74L48.58,0h.92l2,5.19a4,4,0,0,0,.25.56,1,1,0,0,0,.26.3,1,1,0,0,0,.41.15v.23ZM47.47,3.92h2.45l-1.11-3Z"/><path class="cls-1" d="M59.36,5.27c0,.18,0,.31,0,.4a.58.58,0,0,0,.06.22.45.45,0,0,0,.1.13.55.55,0,0,0,.17.1L60,6.2v.23H57.58V6.2A1.4,1.4,0,0,0,58,6.06a.37.37,0,0,0,.18-.24,1.84,1.84,0,0,0,0-.55V3.32H55V5.27a2.34,2.34,0,0,0,0,.45.44.44,0,0,0,.08.23.45.45,0,0,0,.19.14,1.45,1.45,0,0,0,.39.11v.23H53.23V6.2A1.36,1.36,0,0,0,53.72,6a.46.46,0,0,0,.16-.26,2.89,2.89,0,0,0,0-.51v-4a2.59,2.59,0,0,0,0-.47.49.49,0,0,0-.1-.23.42.42,0,0,0-.18-.13A2.39,2.39,0,0,0,53.23.3V.07H55.7V.3a1.82,1.82,0,0,0-.38.11.57.57,0,0,0-.18.12.55.55,0,0,0-.1.23,2.8,2.8,0,0,0,0,.48V2.89h3.25V1.24a1.83,1.83,0,0,0,0-.56.45.45,0,0,0-.16-.22A1.37,1.37,0,0,0,57.58.3V.07H60V.3a1.76,1.76,0,0,0-.45.15.4.4,0,0,0-.18.24,2.39,2.39,0,0,0,0,.55Z"/><path class="cls-1" d="M69.81.3a1.82,1.82,0,0,0-.38.11.57.57,0,0,0-.18.12.55.55,0,0,0-.1.23,2.8,2.8,0,0,0,0,.48v4a2.34,2.34,0,0,0,0,.45.44.44,0,0,0,.09.23.37.37,0,0,0,.18.14,1.45,1.45,0,0,0,.39.11v.23H67.37V6.2a1.58,1.58,0,0,0,.46-.14A.45.45,0,0,0,68,5.81a1.8,1.8,0,0,0,0-.54V3.48c0-.46,0-.94,0-1.42s0-.81.06-1H68L65.72,5.69h-.67L62.9,1h-.1c0,.19,0,.53.06,1s0,1,0,1.53V5.27a2.34,2.34,0,0,0,0,.45A.55.55,0,0,0,63,6a.37.37,0,0,0,.18.14,1.45,1.45,0,0,0,.39.11v.23H61.43V6.2A1.44,1.44,0,0,0,61.92,6a.46.46,0,0,0,.16-.26,2.89,2.89,0,0,0,0-.51v-4a2.59,2.59,0,0,0,0-.47A.49.49,0,0,0,62,.54a.49.49,0,0,0-.18-.13A2.39,2.39,0,0,0,61.43.3V.07h2.09l2,4.54L67.83.07h2Z"/><path class="cls-1" d="M76.69.07V1.48h-.58a2.1,2.1,0,0,0-.18-.4,1.62,1.62,0,0,0-.19-.29.73.73,0,0,0-.22-.18.77.77,0,0,0-.28-.1,2.21,2.21,0,0,0-.39,0H73V2.93h1.25a1.05,1.05,0,0,0,.4-.06.6.6,0,0,0,.25-.2,1.77,1.77,0,0,0,.18-.44h.55V4h-.55a1.73,1.73,0,0,0-.18-.42.56.56,0,0,0-.24-.2,1.07,1.07,0,0,0-.41-.06H73V6h1.82a2,2,0,0,0,.46,0,.79.79,0,0,0,.31-.13,1.39,1.39,0,0,0,.23-.25A1.91,1.91,0,0,0,76,5.28c0-.11.11-.27.19-.48h.58l-.11,1.63H71.22V6.2A1.53,1.53,0,0,0,71.71,6a.46.46,0,0,0,.16-.26,3.13,3.13,0,0,0,0-.51v-4c0-.22,0-.37,0-.47a.61.61,0,0,0-.1-.23A.59.59,0,0,0,71.6.41,2.39,2.39,0,0,0,71.22.3V.07Z"/><path class="cls-1" d="M78.1,6.43V6.2a2.11,2.11,0,0,0,.39-.1A.52.52,0,0,0,78.67,6a.61.61,0,0,0,.09-.23,2.67,2.67,0,0,0,0-.47v-4a2.51,2.51,0,0,0,0-.47.55.55,0,0,0-.09-.23.59.59,0,0,0-.18-.13A2.6,2.6,0,0,0,78.1.3V.07h2.56a6.91,6.91,0,0,1,1.81.2,3.38,3.38,0,0,1,1.19.57,2.25,2.25,0,0,1,.73.94,3.38,3.38,0,0,1,.24,1.34A3.91,3.91,0,0,1,84.4,4.5a2.71,2.71,0,0,1-.65,1,3.14,3.14,0,0,1-.92.58,4.28,4.28,0,0,1-1,.26,11.2,11.2,0,0,1-1.57.08ZM79.89,6l.69,0A4.58,4.58,0,0,0,81.45,6a2.87,2.87,0,0,0,.7-.2,2,2,0,0,0,1-1,2.76,2.76,0,0,0,.23-.72,4.77,4.77,0,0,0,.08-.87,3.09,3.09,0,0,0-.35-1.55,2,2,0,0,0-1-.89A3.57,3.57,0,0,0,80.64.48l-.75,0Z"/><path class="cls-1" d="M12.38.34a2.74,2.74,0,0,0-.55.1.85.85,0,0,0-.27.12.54.54,0,0,0-.15.23,1.84,1.84,0,0,0,0,.47v4a1.76,1.76,0,0,0,0,.46.36.36,0,0,0,.13.22.71.71,0,0,0,.26.14,4,4,0,0,0,.58.11V6.4H8.77V6.17A2.58,2.58,0,0,0,9.46,6a.47.47,0,0,0,.26-.24,1.73,1.73,0,0,0,.06-.54V3.48c0-.46,0-.93,0-1.41s.06-.79.09-1H9.77L6.34,5.66h-1L2.17,1H2A9.42,9.42,0,0,1,2.1,2c0,.5,0,1,0,1.52V5.24a2.34,2.34,0,0,0,0,.46.48.48,0,0,0,.13.22.68.68,0,0,0,.27.14,4,4,0,0,0,.58.11V6.4H0V6.17A2.78,2.78,0,0,0,.72,6,.47.47,0,0,0,1,5.75,2.05,2.05,0,0,0,1,5.24v-4A1.76,1.76,0,0,0,1,.8.53.53,0,0,0,.83.57,1.13,1.13,0,0,0,.56.44,5.64,5.64,0,0,0,0,.34V.11H3.09l3,4.48L9.46.11h2.92Z"/><path class="cls-1" d="M19.08,6.47a9.19,9.19,0,0,1-1.89-.18,4.28,4.28,0,0,1-1.46-.57,2.6,2.6,0,0,1-.94-1,2.83,2.83,0,0,1-.34-1.43A2.76,2.76,0,0,1,15,1.54,3.64,3.64,0,0,1,16.72.42,7.85,7.85,0,0,1,19.26,0,8.09,8.09,0,0,1,21.85.4a3.23,3.23,0,0,1,1.58,1.06A2.79,2.79,0,0,1,24,3.17,2.79,2.79,0,0,1,23.36,5,3.6,3.6,0,0,1,21.65,6.1,8,8,0,0,1,19.08,6.47ZM16.23,3.18A2.82,2.82,0,0,0,17,5.33a3.15,3.15,0,0,0,2.26.73,3.54,3.54,0,0,0,1.6-.32,2.15,2.15,0,0,0,1-.93,3,3,0,0,0,.33-1.44A3.35,3.35,0,0,0,21.8,1.7a2.32,2.32,0,0,0-1.05-1A3.76,3.76,0,0,0,19.2.44a4.07,4.07,0,0,0-1.34.2,2.29,2.29,0,0,0-.92.55,2,2,0,0,0-.54.86A3.62,3.62,0,0,0,16.23,3.18Z"/><path class="cls-1" d="M28.67,5.24a1.76,1.76,0,0,0,0,.46.48.48,0,0,0,.13.22.68.68,0,0,0,.27.14,4.11,4.11,0,0,0,.57.11V6.4H26V6.17A2.79,2.79,0,0,0,26.75,6,.47.47,0,0,0,27,5.75a1.6,1.6,0,0,0,.06-.51v-4A1.67,1.67,0,0,0,27,.8a.45.45,0,0,0-.14-.23A1,1,0,0,0,26.6.44c-.11,0-.3-.06-.56-.1V.11h3.64V.34a3.06,3.06,0,0,0-.55.1.7.7,0,0,0-.26.12.46.46,0,0,0-.15.23,1.75,1.75,0,0,0,0,.47Z"/><path class="cls-1" d="M33.56,6h3.12a4.55,4.55,0,0,0,.86-.06A1.19,1.19,0,0,0,38,5.74a1.39,1.39,0,0,0,.33-.35,5.06,5.06,0,0,0,.35-.68h.85V6.4h-8V6.17L37.46.53H34.33a3.75,3.75,0,0,0-.54,0,1.79,1.79,0,0,0-.35.1,1.19,1.19,0,0,0-.3.18,1.66,1.66,0,0,0-.31.33,4.46,4.46,0,0,0-.31.52h-.85V.11h7.8V.33Z"/></g></g></svg>